<mxfile host="app.diagrams.net" modified="2024-04-22T10:57:33.029Z" agent="Mozilla/5.0 (Windows NT 10.0; Win64; x64) AppleWebKit/537.36 (KHTML, like Gecko) Chrome/124.0.0.0 Safari/537.36" etag="6POXQsztHfqAgtRn_Dr8" version="24.2.7" type="github">
  <diagram name="第 1 页" id="1lo4sFdKwf8PlqaEMepP">
    <mxGraphModel dx="1050" dy="522" grid="1" gridSize="10" guides="1" tooltips="1" connect="1" arrows="1" fold="1" page="1" pageScale="1" pageWidth="827" pageHeight="1169" math="0" shadow="0">
      <root>
        <mxCell id="0" />
        <mxCell id="1" parent="0" />
        <mxCell id="kiAh10sCMysuRCboAyCU-2" value="浏览器" style="html=1;whiteSpace=wrap;" vertex="1" parent="1">
          <mxGeometry x="120" y="150" width="110" height="50" as="geometry" />
        </mxCell>
        <mxCell id="kiAh10sCMysuRCboAyCU-3" value="房屋控制器" style="html=1;whiteSpace=wrap;" vertex="1" parent="1">
          <mxGeometry x="270" y="150" width="110" height="50" as="geometry" />
        </mxCell>
        <mxCell id="kiAh10sCMysuRCboAyCU-4" value="房屋服务" style="html=1;whiteSpace=wrap;" vertex="1" parent="1">
          <mxGeometry x="414" y="150" width="110" height="50" as="geometry" />
        </mxCell>
        <mxCell id="kiAh10sCMysuRCboAyCU-5" value="房屋实体类" style="html=1;whiteSpace=wrap;" vertex="1" parent="1">
          <mxGeometry x="560" y="150" width="110" height="50" as="geometry" />
        </mxCell>
        <mxCell id="kiAh10sCMysuRCboAyCU-6" value="" style="endArrow=none;dashed=1;html=1;rounded=0;entryX=0.585;entryY=1.104;entryDx=0;entryDy=0;entryPerimeter=0;" edge="1" parent="1" source="kiAh10sCMysuRCboAyCU-1" target="kiAh10sCMysuRCboAyCU-2">
          <mxGeometry width="50" height="50" relative="1" as="geometry">
            <mxPoint x="184" y="480" as="sourcePoint" />
            <mxPoint x="440" y="230" as="targetPoint" />
          </mxGeometry>
        </mxCell>
        <mxCell id="kiAh10sCMysuRCboAyCU-7" value="" style="endArrow=none;dashed=1;html=1;rounded=0;" edge="1" parent="1" source="kiAh10sCMysuRCboAyCU-11">
          <mxGeometry width="50" height="50" relative="1" as="geometry">
            <mxPoint x="320" y="530" as="sourcePoint" />
            <mxPoint x="320" y="210" as="targetPoint" />
          </mxGeometry>
        </mxCell>
        <mxCell id="kiAh10sCMysuRCboAyCU-8" value="" style="endArrow=none;dashed=1;html=1;rounded=0;entryX=0.5;entryY=1;entryDx=0;entryDy=0;" edge="1" parent="1" source="kiAh10sCMysuRCboAyCU-15" target="kiAh10sCMysuRCboAyCU-4">
          <mxGeometry width="50" height="50" relative="1" as="geometry">
            <mxPoint x="469" y="530" as="sourcePoint" />
            <mxPoint x="470" y="210" as="targetPoint" />
          </mxGeometry>
        </mxCell>
        <mxCell id="kiAh10sCMysuRCboAyCU-9" value="" style="endArrow=none;dashed=1;html=1;rounded=0;entryX=0.5;entryY=1;entryDx=0;entryDy=0;" edge="1" parent="1" source="kiAh10sCMysuRCboAyCU-24" target="kiAh10sCMysuRCboAyCU-5">
          <mxGeometry width="50" height="50" relative="1" as="geometry">
            <mxPoint x="615" y="530" as="sourcePoint" />
            <mxPoint x="440" y="230" as="targetPoint" />
          </mxGeometry>
        </mxCell>
        <mxCell id="kiAh10sCMysuRCboAyCU-10" value="" style="endArrow=none;dashed=1;html=1;rounded=0;entryX=0.585;entryY=1.104;entryDx=0;entryDy=0;entryPerimeter=0;" edge="1" parent="1" target="kiAh10sCMysuRCboAyCU-1">
          <mxGeometry width="50" height="50" relative="1" as="geometry">
            <mxPoint x="186" y="540" as="sourcePoint" />
            <mxPoint x="184" y="205" as="targetPoint" />
          </mxGeometry>
        </mxCell>
        <mxCell id="kiAh10sCMysuRCboAyCU-1" value="" style="html=1;points=[[0,0,0,0,5],[0,1,0,0,-5],[1,0,0,0,5],[1,1,0,0,-5]];perimeter=orthogonalPerimeter;outlineConnect=0;targetShapes=umlLifeline;portConstraint=eastwest;newEdgeStyle={&quot;curved&quot;:0,&quot;rounded&quot;:0};" vertex="1" parent="1">
          <mxGeometry x="180" y="230" width="10" height="80" as="geometry" />
        </mxCell>
        <mxCell id="kiAh10sCMysuRCboAyCU-12" value="" style="endArrow=none;dashed=1;html=1;rounded=0;" edge="1" parent="1" source="kiAh10sCMysuRCboAyCU-17" target="kiAh10sCMysuRCboAyCU-11">
          <mxGeometry width="50" height="50" relative="1" as="geometry">
            <mxPoint x="320" y="530" as="sourcePoint" />
            <mxPoint x="320" y="210" as="targetPoint" />
          </mxGeometry>
        </mxCell>
        <mxCell id="kiAh10sCMysuRCboAyCU-11" value="" style="html=1;points=[[0,0,0,0,5],[0,1,0,0,-5],[1,0,0,0,5],[1,1,0,0,-5]];perimeter=orthogonalPerimeter;outlineConnect=0;targetShapes=umlLifeline;portConstraint=eastwest;newEdgeStyle={&quot;curved&quot;:0,&quot;rounded&quot;:0};" vertex="1" parent="1">
          <mxGeometry x="320" y="260" width="10" height="40" as="geometry" />
        </mxCell>
        <mxCell id="kiAh10sCMysuRCboAyCU-13" value="1.根据条件查询" style="html=1;verticalAlign=bottom;endArrow=block;curved=0;rounded=0;" edge="1" parent="1" target="kiAh10sCMysuRCboAyCU-11">
          <mxGeometry width="80" relative="1" as="geometry">
            <mxPoint x="190" y="269.5" as="sourcePoint" />
            <mxPoint x="270" y="269.5" as="targetPoint" />
          </mxGeometry>
        </mxCell>
        <mxCell id="kiAh10sCMysuRCboAyCU-16" value="" style="endArrow=none;dashed=1;html=1;rounded=0;entryX=0.5;entryY=1;entryDx=0;entryDy=0;" edge="1" parent="1" target="kiAh10sCMysuRCboAyCU-15">
          <mxGeometry width="50" height="50" relative="1" as="geometry">
            <mxPoint x="469" y="530" as="sourcePoint" />
            <mxPoint x="469" y="200" as="targetPoint" />
          </mxGeometry>
        </mxCell>
        <mxCell id="kiAh10sCMysuRCboAyCU-15" value="" style="html=1;points=[[0,0,0,0,5],[0,1,0,0,-5],[1,0,0,0,5],[1,1,0,0,-5]];perimeter=orthogonalPerimeter;outlineConnect=0;targetShapes=umlLifeline;portConstraint=eastwest;newEdgeStyle={&quot;curved&quot;:0,&quot;rounded&quot;:0};" vertex="1" parent="1">
          <mxGeometry x="464" y="320" width="10" height="80" as="geometry" />
        </mxCell>
        <mxCell id="kiAh10sCMysuRCboAyCU-18" value="" style="endArrow=none;dashed=1;html=1;rounded=0;" edge="1" parent="1" target="kiAh10sCMysuRCboAyCU-17">
          <mxGeometry width="50" height="50" relative="1" as="geometry">
            <mxPoint x="320" y="530" as="sourcePoint" />
            <mxPoint x="320" y="310" as="targetPoint" />
          </mxGeometry>
        </mxCell>
        <mxCell id="kiAh10sCMysuRCboAyCU-17" value="" style="html=1;points=[[0,0,0,0,5],[0,1,0,0,-5],[1,0,0,0,5],[1,1,0,0,-5]];perimeter=orthogonalPerimeter;outlineConnect=0;targetShapes=umlLifeline;portConstraint=eastwest;newEdgeStyle={&quot;curved&quot;:0,&quot;rounded&quot;:0};" vertex="1" parent="1">
          <mxGeometry x="320" y="330" width="10" height="50" as="geometry" />
        </mxCell>
        <mxCell id="kiAh10sCMysuRCboAyCU-19" value="2.校验条件的合法性" style="html=1;verticalAlign=bottom;startArrow=oval;startFill=1;endArrow=block;startSize=8;curved=0;rounded=0;" edge="1" parent="1" target="kiAh10sCMysuRCboAyCU-17">
          <mxGeometry width="60" relative="1" as="geometry">
            <mxPoint x="330" y="290" as="sourcePoint" />
            <mxPoint x="340" y="350" as="targetPoint" />
            <Array as="points">
              <mxPoint x="390" y="290" />
              <mxPoint x="390" y="350" />
            </Array>
          </mxGeometry>
        </mxCell>
        <mxCell id="kiAh10sCMysuRCboAyCU-22" value="3.条件合法，传输条件" style="html=1;verticalAlign=bottom;endArrow=block;curved=0;rounded=0;" edge="1" parent="1" source="kiAh10sCMysuRCboAyCU-17">
          <mxGeometry width="80" relative="1" as="geometry">
            <mxPoint x="340" y="370" as="sourcePoint" />
            <mxPoint x="460" y="370" as="targetPoint" />
          </mxGeometry>
        </mxCell>
        <mxCell id="kiAh10sCMysuRCboAyCU-23" value="4.根据条件查询数据库" style="html=1;verticalAlign=bottom;endArrow=block;curved=0;rounded=0;" edge="1" parent="1" target="kiAh10sCMysuRCboAyCU-24">
          <mxGeometry width="80" relative="1" as="geometry">
            <mxPoint x="474" y="340" as="sourcePoint" />
            <mxPoint x="554" y="340" as="targetPoint" />
          </mxGeometry>
        </mxCell>
        <mxCell id="kiAh10sCMysuRCboAyCU-25" value="" style="endArrow=none;dashed=1;html=1;rounded=0;entryX=0.5;entryY=1;entryDx=0;entryDy=0;" edge="1" parent="1" target="kiAh10sCMysuRCboAyCU-24">
          <mxGeometry width="50" height="50" relative="1" as="geometry">
            <mxPoint x="615" y="530" as="sourcePoint" />
            <mxPoint x="615" y="200" as="targetPoint" />
          </mxGeometry>
        </mxCell>
        <mxCell id="kiAh10sCMysuRCboAyCU-24" value="" style="html=1;points=[[0,0,0,0,5],[0,1,0,0,-5],[1,0,0,0,5],[1,1,0,0,-5]];perimeter=orthogonalPerimeter;outlineConnect=0;targetShapes=umlLifeline;portConstraint=eastwest;newEdgeStyle={&quot;curved&quot;:0,&quot;rounded&quot;:0};" vertex="1" parent="1">
          <mxGeometry x="610" y="320" width="10" height="130" as="geometry" />
        </mxCell>
        <mxCell id="kiAh10sCMysuRCboAyCU-26" value="" style="html=1;points=[[0,0,0,0,5],[0,1,0,0,-5],[1,0,0,0,5],[1,1,0,0,-5]];perimeter=orthogonalPerimeter;outlineConnect=0;targetShapes=umlLifeline;portConstraint=eastwest;newEdgeStyle={&quot;curved&quot;:0,&quot;rounded&quot;:0};" vertex="1" parent="1">
          <mxGeometry x="180" y="390" width="10" height="80" as="geometry" />
        </mxCell>
        <mxCell id="kiAh10sCMysuRCboAyCU-27" value="5.返回查询数据" style="html=1;verticalAlign=bottom;endArrow=block;curved=0;rounded=0;" edge="1" parent="1" source="kiAh10sCMysuRCboAyCU-24">
          <mxGeometry width="80" relative="1" as="geometry">
            <mxPoint x="600" y="429.5" as="sourcePoint" />
            <mxPoint x="470" y="430" as="targetPoint" />
          </mxGeometry>
        </mxCell>
        <mxCell id="kiAh10sCMysuRCboAyCU-29" value="6.包装并返回查询数据" style="html=1;verticalAlign=bottom;endArrow=block;curved=0;rounded=0;" edge="1" parent="1" target="kiAh10sCMysuRCboAyCU-26">
          <mxGeometry width="80" relative="1" as="geometry">
            <mxPoint x="470" y="440" as="sourcePoint" />
            <mxPoint x="440" y="440" as="targetPoint" />
            <mxPoint as="offset" />
          </mxGeometry>
        </mxCell>
      </root>
    </mxGraphModel>
  </diagram>
</mxfile>
